<?xml version="1.0" encoding="UTF-8"?>
<svg width="48px" height="48px" viewBox="0 0 48 48" version="1.1" xmlns="http://www.w3.org/2000/svg" xmlns:xlink="http://www.w3.org/1999/xlink">
    <!-- Generator: Sketch 55.2 (78181) - https://sketchapp.com -->
    <title>Icons/Cities/London-gray</title>
    <desc>Created with Sketch.</desc>
    <defs>
        <path d="M41.3998399,33.3002877 L41.3998399,29.7603037 L42.2995858,29.7603037 L42.2995858,33.3002877 L42.2995858,41.8699989 L19.8796872,41.8699989 L7.17999466,41.8699989 L7.17999466,26.5300683 L6,26.5300683 L6,12.6503811 L6,10.2903918 L6.89974593,10.2903918 L6.89974593,12.0775871 L13.5298409,6 L20.1599359,12.0775871 L20.1599359,10.2903918 L21.0596819,10.2903918 L21.0596819,12.6503811 L21.0596819,26.5300683 L19.8796872,26.5300683 L19.8796872,33.3002877 L26.0599093,33.3002877 L26.0599093,29.7603037 L26.9596552,29.7603037 L26.9596552,33.3002877 L34.3198719,33.3002877 L34.3198719,29.7603037 L35.2196178,29.7603037 L35.2196178,33.3002877 L41.3998399,33.3002877 Z M26.9596552,40.970253 L34.3198719,40.970253 L34.3198719,34.2000336 L26.9596552,34.2000336 L26.9596552,40.970253 Z M26.0599093,40.970253 L26.0599093,34.2000336 L19.8796872,34.2000336 L19.8796872,40.970253 L26.0599093,40.970253 Z M35.2196178,40.970253 L41.3998399,40.970253 L41.3998399,34.2000336 L35.2196178,34.2000336 L35.2196178,40.970253 Z M18.9799413,26.5300683 L8.07974059,26.5300683 L8.07974059,33.3002877 L18.9799413,33.3002877 L18.9799413,26.5300683 Z M7.60640723,12.6503811 L19.4532746,12.6503811 L13.5298409,7.22056688 L7.60640723,12.6503811 Z M18.9799413,34.2000336 L8.07974059,34.2000336 L8.07974059,40.970253 L18.9799413,40.970253 L18.9799413,34.2000336 Z M6.89974593,13.550127 L6.89974593,25.6303224 L20.1599359,25.6303224 L20.1599359,13.550127 L6.89974593,13.550127 Z M13.5298409,23.5800817 C11.3263038,23.5800817 9.53998399,21.7937619 9.53998399,19.5902247 C9.53998399,17.3866876 11.3263038,15.6003678 13.5298409,15.6003678 C15.7333781,15.6003678 17.5196979,17.3866876 17.5196979,19.5902247 C17.5196979,21.7937619 15.7333781,23.5800817 13.5298409,23.5800817 Z M13.5298409,22.6803357 C15.2364621,22.6803357 16.619952,21.2968459 16.619952,19.5902247 C16.619952,17.8836035 15.2364621,16.5001137 13.5298409,16.5001137 C11.8232197,16.5001137 10.4397299,17.8836035 10.4397299,19.5902247 C10.4397299,21.2968459 11.8232197,22.6803357 13.5298409,22.6803357 Z M15.7497059,38.9200123 L14.84996,38.9200123 L14.84996,36.2502744 L15.7497059,36.2502744 L15.7497059,38.9200123 Z M23.4196712,38.9200123 L22.5199253,38.9200123 L22.5199253,36.2502744 L23.4196712,36.2502744 L23.4196712,38.9200123 Z M31.0896365,38.9200123 L30.1898906,38.9200123 L30.1898906,36.2502744 L31.0896365,36.2502744 L31.0896365,38.9200123 Z M38.7596018,38.9200123 L37.8598559,38.9200123 L37.8598559,36.2502744 L38.7596018,36.2502744 L38.7596018,38.9200123 Z M12.2097219,38.9200123 L11.309976,38.9200123 L11.309976,36.2502744 L12.2097219,36.2502744 L12.2097219,38.9200123 Z M15.7497059,31.250047 L14.84996,31.250047 L14.84996,28.5803091 L15.7497059,28.5803091 L15.7497059,31.250047 Z M12.2097219,31.250047 L11.309976,31.250047 L11.309976,28.5803091 L12.2097219,28.5803091 L12.2097219,31.250047 Z" id="path-1"></path>
    </defs>
    <g id="Icons/Cities/London-gray" stroke="none" stroke-width="1" fill="none" fill-rule="evenodd">
        <mask id="mask-2" fill="white">
            <use xlink:href="#path-1"></use>
        </mask>
        <use id="Mask" fill="#828282" fill-rule="nonzero" xlink:href="#path-1"></use>
    </g>
</svg>